<?xml version="1.0" encoding="UTF-8"?>
<svg id="Layer_1" data-name="Layer 1" xmlns="http://www.w3.org/2000/svg" viewBox="0 0 500 200">
  <defs>
    <style>
      .cls-1 {
        fill: #fff;
      }

      .cls-2 {
        fill: #3b82f6;
      }
    </style>
  </defs>
  <g>
    <path class="cls-2" d="M101.14,88.61l1.11,9.55-25.31-17.46,25.47-12.71-1.24,8.74,19.08,2.41c1.47.24,2.88.78,4.12,1.59l20.39,13.27v15.69l-28.16-18.69-15.46-2.4Z"/>
    <path class="cls-2" d="M118.64,113.49l-1.08-9.83,27.2,17.97-24.56,13.77v-9.84l-18.62-2.14c-2.25-.39-4.39-1.3-6.23-2.64l-18.4-13.41v-14.74l26.36,18.69,15.34,2.16Z"/>
  </g>
  <g>
    <path class="cls-1" d="M43.36,99.13l29.18,26.59h-18.18l-21.54-19.63-15.36,9.24v10.39H4.4v-61.12h13.06v36.37l32.77-20.25h22.31l-29.18,18.41Z"/>
    <path class="cls-1" d="M252.27,100.5l-.15,25.21h-13.06v-19.94c0-9.55-1.6-14.52-10.93-14.52-6.88,0-13.6,3.29-17.57,6.88.08.76.08,1.53.08,2.37l-.15,25.21h-13.06v-19.94c0-9.55-1.6-14.52-10.93-14.52-7.56,0-14.9,3.9-18.64,7.95v26.51h-13.06v-45h13.06v7.33c4.89-3.9,12.22-8.1,23.38-8.1,6.8,0,13.22,1.99,16.65,8.25,5.81-4.35,13.83-8.25,24.98-8.25,10.08,0,19.25,4.28,19.41,20.55Z"/>
    <path class="cls-1" d="M305.06,109.59h12.99c-2.98,11.46-14.13,16.88-30.79,16.88s-30.41-6.72-30.41-23.23,12.91-23.3,31.17-23.3c17.11,0,30.79,5.88,30.79,26.36h-48.59c1.45,7.18,8.33,9.55,17.04,9.55s14.52-1.68,17.8-6.26ZM270.68,97.98h34.15c-2.22-6.34-8.63-8.1-16.88-8.1-8.94,0-15.2,1.76-17.27,8.1Z"/>
    <path class="cls-1" d="M372.06,81.48v10.92c-4.28-1.07-7.72-1.53-11.54-1.53-7.33,0-15.74,1.68-23.68,7.87v26.97h-13.06v-45h13.06v7.64c6.72-6.04,14.67-8.4,23.07-8.4,5.35,0,9.09.76,12.15,1.53Z"/>
    <path class="cls-1" d="M430.43,91.64l-33.69,23.15h33.69v10.93h-53.02v-10.93l33.69-23.15h-33.69v-10.93h53.02v10.93Z"/>
    <path class="cls-1" d="M495.6,103.02v22.69h-13.14v-5.58c-7.95,3.9-16.73,6.34-27.35,6.34-12.61,0-20.47-4.05-20.47-14.21,0-11.69,12.83-15.36,27.12-15.36,7.72,0,14.82,1.22,20.7,3.21,0-8.56-11-9.24-17.11-9.24s-13.06.54-22.31,3.29l-4.66-9.55c9.17-2.98,18.18-4.66,27.58-4.66,18.79,0,29.49,6.04,29.64,23.07ZM482.46,108.22c-4.58-1.45-10.77-2.75-19.1-2.75-9.78,0-15.66,1.68-15.66,6.26s4.35,5.12,11.15,5.12,16.88-2.22,23.61-5.12v-3.51Z"/>
  </g>
</svg>